<svg xmlns="http://www.w3.org/2000/svg" xmlns:xlink="http://www.w3.org/1999/xlink" id="Ebene_2" data-name="Ebene 2" viewBox="0 0 1008.86 213.79"><defs><style>      .cls-1 {        fill: none;      }      .cls-2 {        clip-path: url(#clippath);      }      .cls-3 {        fill: #752ee3;      }    </style><clipPath id="clippath"><rect class="cls-1" width="1008.86" height="213.79"/></clipPath></defs><g id="Ebene_1-2" data-name="Ebene 1"><g class="cls-2"><path class="cls-3" d="M975.33,63.49c5.36,3.72,8.35,8.74,8.99,15.04h-63.96c1.64-5.8,5.3-10.69,10.98-14.67,5.67-3.98,13.05-5.96,22.14-5.96s16.49,1.86,21.86,5.58M974.39,114.58c-5.23,2.72-11.76,4.07-19.58,4.07-7.07,0-13.16-1.14-18.27-3.41-5.11-2.27-9.14-5.36-12.11-9.28-2.97-3.9-4.77-8.26-5.4-13.05h89.7c.63-12.23-1.04-22.29-5.02-30.18-3.97-7.89-10.06-13.79-18.26-17.7-8.2-3.91-18.48-5.86-30.85-5.86s-22.68,1.95-31.7,5.86c-9.02,3.91-16.05,9.56-21.1,16.93-5.05,7.38-7.57,16.24-7.57,26.59s2.58,19.18,7.76,26.49c5.17,7.32,12.36,12.9,21.58,16.75,9.2,3.85,19.8,5.77,31.79,5.77,10.72,0,19.81-1.46,27.25-4.35,7.44-2.9,13.34-6.88,17.69-11.92,4.35-5.05,7.03-10.79,8.04-17.22h-23.84c-1.51,4.29-4.89,7.79-10.12,10.5M849.76,135.3h24.6V41.25h-24.6v94.05ZM847.87,21.57h28.57V0h-28.57v21.58ZM833.29,39.17c-5.55,0-10.41,1.01-14.57,3.03-4.17,2.01-7.7,4.64-10.6,7.85-2.91,3.22-5.24,6.56-7,10.03-1.77,3.47-3.09,6.69-3.98,9.65-.88,2.97-1.39,5.2-1.51,6.72l.19,10.41c1.26-3.66,3.47-7.44,6.63-11.35,3.15-3.91,7.32-7.22,12.49-9.94,5.17-2.71,11.29-4.07,18.35-4.07v-22.32ZM772.54,135.3h24.6V41.25h-24.6v94.05ZM720.96,63.49c5.36,3.72,8.35,8.74,8.99,15.04h-63.96c1.64-5.8,5.3-10.69,10.97-14.67,5.68-3.98,13.06-5.96,22.14-5.96s16.49,1.86,21.86,5.58M720.01,114.58c-5.23,2.72-11.76,4.07-19.58,4.07-7.07,0-13.16-1.14-18.27-3.41-5.11-2.27-9.14-5.36-12.11-9.28-2.97-3.9-4.77-8.26-5.4-13.05h89.69c.64-12.23-1.04-22.29-5.01-30.18-3.97-7.89-10.06-13.79-18.26-17.7-8.2-3.91-18.48-5.86-30.85-5.86s-22.68,1.95-31.7,5.86c-9.02,3.91-16.05,9.56-21.1,16.93-5.04,7.38-7.57,16.24-7.57,26.59s2.58,19.18,7.76,26.49c5.17,7.32,12.36,12.9,21.58,16.75,9.2,3.85,19.8,5.77,31.79,5.77,10.72,0,19.81-1.46,27.25-4.35,7.44-2.9,13.34-6.88,17.69-11.92,4.35-5.05,7.03-10.79,8.04-17.22h-23.84c-1.51,4.29-4.89,7.79-10.12,10.5M551.77,100.48c-4.1-1.76-7.29-4.32-9.55-7.66-2.27-3.34-3.41-7.35-3.41-12.02s1.13-8.89,3.41-12.3c2.27-3.41,5.49-6.02,9.65-7.86,4.16-1.82,8.96-2.74,14.38-2.74s10.34.92,14.39,2.74c4.04,1.83,7.19,4.45,9.46,7.86,2.27,3.41,3.41,7.51,3.41,12.3s-1.14,8.68-3.41,12.02c-2.27,3.35-5.46,5.9-9.56,7.66-4.1,1.77-8.86,2.65-14.29,2.65s-10.37-.88-14.48-2.65M622.45,174.09v-8.89c0-7.57-1.58-13.53-4.73-17.88-3.15-4.35-7.73-7.45-13.72-9.28-5.99-1.83-13.22-2.74-21.67-2.74h-30.85c-2.78,0-4.92-.53-6.43-1.61-1.52-1.07-2.27-2.55-2.27-4.45,0-3.15,1.92-5.26,5.77-6.34,3.84-1.07,9.74-1.73,17.69-1.99l-11.92-2.08c-6.69-.5-12.8-.31-18.35.57-5.55.88-9.97,2.62-13.25,5.2-3.28,2.58-4.92,6.4-4.92,11.45,0,2.52.5,4.89,1.51,7.09,1.01,2.21,2.65,4.13,4.92,5.77,2.27,1.64,5.32,2.9,9.17,3.78,3.85.88,8.61,1.33,14.29,1.33h29.33c6.43,0,11.51,1.13,15.24,3.41,3.72,2.27,5.58,6.31,5.58,12.11v4.54h24.6ZM593.4,116.28c7.63-3.09,13.53-7.57,17.69-13.43,4.17-5.87,6.25-12.9,6.25-21.1,0-5.04-1.17-9.49-3.5-13.34-2.33-3.84-5.39-7.25-9.17-10.22-3.79-2.96-7.83-5.46-12.11-7.47l.57,1.33c5.04,2.01,10.88,3.87,17.5,5.58,6.62,1.71,13.15,2.49,19.58,2.37v-18.55l-47.5-.19c-2.65-.63-5.33-1.14-8.04-1.52-2.72-.38-5.52-.56-8.42-.56-10.47,0-19.58,1.7-27.34,5.11-7.76,3.41-13.72,8.2-17.88,14.38-4.16,6.18-6.24,13.5-6.24,21.95s2.14,15.9,6.43,21.95c4.29,6.06,10.31,10.63,18.07,13.72,7.76,3.09,16.75,4.64,26.97,4.64s19.52-1.54,27.16-4.64M438.69,42.2c-5.3,2.01-9.87,4.76-13.72,8.23-3.85,3.47-6.91,7.29-9.18,11.45-2.27,4.16-3.72,8.45-4.35,12.86l.19,9.65c.5-4.16,2.4-8.17,5.68-12.02,3.28-3.85,7.57-7.03,12.87-9.56,5.29-2.52,11.23-3.78,17.79-3.78,8.71,0,14.98,1.86,18.83,5.58,3.85,3.72,5.77,9.56,5.77,17.5v53.18h24.6v-57.53c0-6.68-1.01-12.45-3.03-17.31s-4.86-8.86-8.51-12.02c-3.66-3.15-7.95-5.49-12.87-7-4.92-1.51-10.28-2.27-16.08-2.27-6.69,0-12.68,1.01-17.98,3.03M388.35,135.3h24.6V41.25h-24.6v94.05ZM341.59,111.07c0,3.66.13,7.38.38,11.17.25,3.79.7,8.14,1.33,13.06h22.9V41.25h-24.6v69.82ZM288.13,114.67c-4.98-2.52-8.86-6.02-11.63-10.5-2.78-4.48-4.17-9.75-4.17-15.8,0-9.08,2.9-16.37,8.71-21.86,5.8-5.49,13.94-8.23,24.41-8.23,7.44,0,13.84,1.17,19.21,3.5,5.36,2.33,9.52,5.74,12.49,10.22,2.96,4.48,4.44,9.94,4.44,16.37,0,5.93-1.45,11.16-4.35,15.7-2.9,4.54-7.06,8.07-12.48,10.6-5.43,2.52-11.86,3.78-19.3,3.78-6.56,0-12.33-1.26-17.32-3.78M318.88,132.93c5.93-2.96,10.72-6.87,14.39-11.73,3.66-4.86,6.37-10.15,8.14-15.9,1.76-5.74,2.65-11.38,2.65-16.93,0-9.21-1.52-17.53-4.55-24.98-3.03-7.44-7.86-13.34-14.48-17.7-6.63-4.35-15.36-6.52-26.21-6.52-9.84,0-18.64,2.05-26.4,6.15-7.76,4.1-13.91,9.81-18.45,17.13-4.54,7.32-6.81,15.96-6.81,25.93s2.24,18.26,6.72,25.64c4.48,7.38,10.54,13.12,18.17,17.22,7.63,4.1,16.11,6.15,25.45,6.15,8.33,0,15.45-1.49,21.38-4.45M236.75,39.17c-5.55,0-10.41,1.01-14.57,3.03-4.16,2.01-7.69,4.64-10.6,7.85-2.9,3.22-5.23,6.56-7,10.03-1.77,3.47-3.09,6.69-3.98,9.65-.88,2.97-1.39,5.2-1.51,6.72l.19,10.41c1.26-3.66,3.47-7.44,6.62-11.35s7.32-7.22,12.49-9.94c5.17-2.71,11.29-4.07,18.36-4.07v-22.32ZM176,135.3h24.6V41.25h-24.6v94.05ZM50.71,111.46c-7.83-3.03-13.94-7.63-18.35-13.82-4.42-6.18-6.62-14-6.62-23.46s2.2-17.28,6.62-23.46c4.41-6.18,10.53-10.82,18.35-13.91,7.82-3.09,16.72-4.64,26.68-4.64s18.95,1.55,26.59,4.64c7.63,3.09,13.62,7.73,17.98,13.91,4.35,6.18,6.52,14,6.52,23.46s-2.18,17.28-6.52,23.46c-4.35,6.18-10.35,10.79-17.98,13.82-7.64,3.03-16.5,4.54-26.59,4.54s-18.86-1.51-26.68-4.54M119.22,130.09c11.48-5.11,20.28-12.39,26.4-21.86,6.12-9.46,9.18-20.81,9.18-34.06s-3.06-24.79-9.18-34.25c-6.12-9.46-14.92-16.75-26.4-21.86-11.48-5.11-25.42-7.66-41.82-7.66s-30.19,2.55-41.73,7.66c-11.54,5.11-20.37,12.39-26.49,21.86C3.06,49.39,0,60.81,0,74.18s3.06,24.6,9.17,34.06c6.12,9.46,14.95,16.75,26.49,21.86,11.54,5.11,25.45,7.66,41.73,7.66s30.34-2.55,41.82-7.66"/><path class="cls-3" d="M595.1,168.49c-2.52.96-4.69,2.26-6.52,3.91s-3.28,3.46-4.36,5.44c-1.08,1.98-1.77,4.02-2.07,6.11l.09,4.59c.24-1.98,1.14-3.88,2.7-5.71,1.56-1.83,3.6-3.34,6.11-4.54,2.52-1.2,5.34-1.8,8.45-1.8,4.14,0,7.12.89,8.95,2.65,1.83,1.77,2.74,4.54,2.74,8.32v25.26h11.69v-27.33c0-3.17,0-13.74-.8-16.04.8-2.3-2.95,3.61-4.69,2.11s-3.77-2.61-6.11-3.33c-2.34-.72-4.89-1.08-7.64-1.08-3.18,0-6.02.48-8.54,1.44M571.19,212.71h11.69v-44.67h-11.69v44.67ZM546.51,197.07c-1.47,2.04-3.37,3.76-5.71,5.17-2.34,1.41-5.12,2.11-8.36,2.11-2.46,0-4.58-.33-6.38-.99-1.8-.66-3.16-1.81-4.09-3.46-.93-1.65-1.4-3.91-1.4-6.79v-25.08h-11.68v27.06c0,3.66.57,6.69,1.71,9.08,1.13,2.4,2.66,4.3,4.58,5.71s4.06,2.41,6.43,3.01c2.36.6,4.78.9,7.24.9,3.11,0,5.81-.53,8.09-1.57,2.27-1.05,4.19-2.4,5.75-4.05,1.56-1.65,2.83-3.37,3.82-5.17.99-1.8,1.72-3.49,2.2-5.08.48-1.58.78-2.8.9-3.64l-.09-3.05c-.54,1.85-1.54,3.8-3.01,5.84M560.58,168.04h-11.69v44.67h11.69v-44.67ZM458.29,150.06h-11.69v62.65h11.69v-62.65ZM498.29,212.71v-28.58c0-2.87-.48-5.37-1.44-7.5-.96-2.13-2.31-3.91-4.04-5.35-1.74-1.44-3.78-2.5-6.12-3.19-2.33-.69-4.88-1.04-7.64-1.04-3.18,0-6.04.5-8.58,1.49-2.55.99-4.72,2.29-6.52,3.91-1.8,1.62-3.24,3.41-4.32,5.39-1.07,1.98-1.76,3.96-2.06,5.93l.09,4.95c.18-1.98,1.01-3.85,2.51-5.62s3.45-3.2,5.85-4.32c2.39-1.1,5.06-1.66,8-1.66s5.49.42,7.32,1.26c1.83.84,3.16,2.07,4,3.69.84,1.61,1.26,3.65,1.26,6.11v24.54h11.69ZM403.68,212.71h11.96v-49.43h-11.96v49.43ZM378.95,164.54h61.3v-9.98h-61.3v9.98Z"/></g></g></svg>
